<svg width="80" height="80" viewBox="0 0 80 80" fill="none" xmlns="http://www.w3.org/2000/svg">
    <defs>
        <linearGradient id="tipsGradient" x1="0%" y1="0%" x2="100%" y2="100%">
            <stop offset="0%" style="stop-color:#3b82f6"/>
            <stop offset="100%" style="stop-color:#1d4ed8"/>
        </linearGradient>
        <filter id="tipsShadow" x="-20%" y="-20%" width="140%" height="140%">
            <feDropShadow dx="2" dy="4" stdDeviation="3" flood-color="#3b82f6" flood-opacity="0.3"/>
        </filter>
    </defs>
    
    <!-- Background circle -->
    <circle cx="40" cy="40" r="35" fill="url(#tipsGradient)" filter="url(#tipsShadow)"/>
    
    <!-- Main lightbulb -->
    <g transform="translate(40, 25)">
        <!-- Bulb -->
        <circle cx="0" cy="0" r="12" fill="white"/>
        <circle cx="0" cy="0" r="12" fill="none" stroke="#e2e8f0" stroke-width="1"/>
        
        <!-- Filament -->
        <g stroke="#3b82f6" stroke-width="1.5" fill="none">
            <path d="M-6,-3 Q0,-8 6,-3"/>
            <path d="M-6,0 Q0,-5 6,0"/>
            <path d="M-6,3 Q0,-2 6,3"/>
        </g>
        
        <!-- Base -->
        <rect x="-6" y="10" width="12" height="8" rx="1" fill="#64748b"/>
        <line x1="-6" y1="13" x2="6" y2="13" stroke="#475569" stroke-width="1"/>
        <line x1="-6" y1="16" x2="6" y2="16" stroke="#475569" stroke-width="1"/>
        
        <!-- Light rays -->
        <g stroke="white" stroke-width="2" opacity="0.8">
            <line x1="-18" y1="-8" x2="-15" y2="-5"/>
            <line x1="-18" y1="8" x2="-15" y2="5"/>
            <line x1="18" y1="-8" x2="15" y2="-5"/>
            <line x1="18" y1="8" x2="15" y2="5"/>
            <line x1="-8" y1="-18" x2="-5" y2="-15"/>
            <line x1="8" y1="-18" x2="5" y2="-15"/>
            <line x1="0" y1="-20" x2="0" y2="-17"/>
        </g>
    </g>
    
    <!-- Study elements around the bulb -->
    <!-- Book -->
    <g transform="translate(15, 50)">
        <rect x="0" y="0" width="15" height="12" rx="1" fill="white"/>
        <rect x="2" y="-2" width="15" height="12" rx="1" fill="white" opacity="0.8"/>
        <rect x="0" y="0" width="15" height="12" rx="1" fill="none" stroke="#e2e8f0" stroke-width="1"/>
        <line x1="7.5" y1="2" x2="7.5" y2="10" stroke="#3b82f6" stroke-width="1"/>
        <line x1="4" y1="4" x2="11" y2="4" stroke="#94a3b8" stroke-width="0.5"/>
        <line x1="4" y1="6" x2="10" y2="6" stroke="#94a3b8" stroke-width="0.5"/>
        <line x1="4" y1="8" x2="11" y2="8" stroke="#94a3b8" stroke-width="0.5"/>
    </g>
    
    <!-- Pencil -->
    <g transform="translate(55, 50) rotate(30)">
        <rect x="0" y="0" width="2" height="15" fill="#fbbf24"/>
        <polygon points="0,0 2,0 1,-3" fill="#f59e0b"/>
        <rect x="0" y="13" width="2" height="3" fill="#ec4899"/>
    </g>
    
    <!-- Target/Goal -->
    <g transform="translate(65, 30)">
        <circle cx="0" cy="0" r="6" fill="white"/>
        <circle cx="0" cy="0" r="4" fill="none" stroke="#3b82f6" stroke-width="1"/>
        <circle cx="0" cy="0" r="2" fill="none" stroke="#3b82f6" stroke-width="1"/>
        <circle cx="0" cy="0" r="1" fill="#3b82f6"/>
    </g>
    
    <!-- Clock -->
    <g transform="translate(15, 25)">
        <circle cx="0" cy="0" r="5" fill="white"/>
        <circle cx="0" cy="0" r="5" fill="none" stroke="#e2e8f0" stroke-width="1"/>
        <line x1="0" y1="0" x2="0" y2="-3" stroke="#3b82f6" stroke-width="1.5"/>
        <line x1="0" y1="0" x2="2" y2="0" stroke="#3b82f6" stroke-width="1"/>
        <circle cx="0" cy="0" r="0.5" fill="#3b82f6"/>
    </g>
    
    <!-- Floating tip bubbles -->
    <g opacity="0.9">
        <!-- Tip 1 -->
        <circle cx="25" cy="35" r="3" fill="white"/>
        <text x="25" y="37" font-family="Arial, sans-serif" font-size="6" text-anchor="middle" fill="#3b82f6">1</text>
        
        <!-- Tip 2 -->
        <circle cx="55" cy="20" r="3" fill="white"/>
        <text x="55" y="22" font-family="Arial, sans-serif" font-size="6" text-anchor="middle" fill="#3b82f6">2</text>
        
        <!-- Tip 3 -->
        <circle cx="50" cy="65" r="3" fill="white"/>
        <text x="50" y="67" font-family="Arial, sans-serif" font-size="6" text-anchor="middle" fill="#3b82f6">3</text>
    </g>
    
    <!-- Connecting lines -->
    <g opacity="0.4">
        <line x1="25" y1="35" x2="32" y2="30" stroke="white" stroke-width="1" stroke-dasharray="2,2"/>
        <line x1="55" y1="20" x2="47" y2="27" stroke="white" stroke-width="1" stroke-dasharray="2,2"/>
        <line x1="50" y1="65" x2="45" y2="50" stroke="white" stroke-width="1" stroke-dasharray="2,2"/>
    </g>
    
    <!-- Sparkles -->
    <g opacity="0.7">
        <g transform="translate(70, 15)">
            <path d="M0,-2 L0.5,0 L0,2 L-0.5,0 Z" fill="white"/>
            <path d="M-2,0 L0,-0.5 L2,0 L0,0.5 Z" fill="white"/>
        </g>
        
        <g transform="translate(12, 65)">
            <path d="M0,-1.5 L0.5,0 L0,1.5 L-0.5,0 Z" fill="white"/>
            <path d="M-1.5,0 L0,-0.5 L1.5,0 L0,0.5 Z" fill="white"/>
        </g>
        
        <circle cx="10" cy="40" r="1" fill="white"/>
        <circle cx="70" cy="45" r="1" fill="white"/>
    </g>
</svg>
