<svg width="80" height="80" viewBox="0 0 80 80" fill="none" xmlns="http://www.w3.org/2000/svg">
    <defs>
        <linearGradient id="summarizeGradient" x1="0%" y1="0%" x2="100%" y2="100%">
            <stop offset="0%" style="stop-color:#6366f1"/>
            <stop offset="100%" style="stop-color:#4f46e5"/>
        </linearGradient>
        <filter id="shadow" x="-20%" y="-20%" width="140%" height="140%">
            <feDropShadow dx="2" dy="4" stdDeviation="3" flood-color="#6366f1" flood-opacity="0.3"/>
        </filter>
    </defs>
    
    <!-- Background circle -->
    <circle cx="40" cy="40" r="35" fill="url(#summarizeGradient)" filter="url(#shadow)"/>
    
    <!-- Document stack -->
    <g transform="translate(20, 15)">
        <!-- Back document -->
        <rect x="5" y="5" width="30" height="40" rx="3" fill="white" opacity="0.8"/>
        <rect x="5" y="5" width="30" height="40" rx="3" fill="none" stroke="white" stroke-width="1"/>
        
        <!-- Middle document -->
        <rect x="2" y="2" width="30" height="40" rx="3" fill="white" opacity="0.9"/>
        <rect x="2" y="2" width="30" height="40" rx="3" fill="none" stroke="white" stroke-width="1"/>
        
        <!-- Front document -->
        <rect x="0" y="0" width="30" height="40" rx="3" fill="white"/>
        <rect x="0" y="0" width="30" height="40" rx="3" fill="none" stroke="#e2e8f0" stroke-width="1"/>
        
        <!-- Text lines on front document -->
        <line x1="4" y1="8" x2="26" y2="8" stroke="#94a3b8" stroke-width="1"/>
        <line x1="4" y1="12" x2="24" y2="12" stroke="#94a3b8" stroke-width="1"/>
        <line x1="4" y1="16" x2="26" y2="16" stroke="#94a3b8" stroke-width="1"/>
        <line x1="4" y1="20" x2="22" y2="20" stroke="#94a3b8" stroke-width="1"/>
        <line x1="4" y1="24" x2="25" y2="24" stroke="#94a3b8" stroke-width="1"/>
        <line x1="4" y1="28" x2="23" y2="28" stroke="#94a3b8" stroke-width="1"/>
    </g>
    
    <!-- Arrow transformation -->
    <g transform="translate(55, 30)">
        <!-- Arrow -->
        <path d="M0,10 L8,10 L6,8 M6,12 L8,10" stroke="white" stroke-width="2" fill="none" stroke-linecap="round"/>
    </g>
    
    <!-- Summarized document -->
    <g transform="translate(45, 35)">
        <rect x="0" y="0" width="20" height="25" rx="2" fill="white"/>
        <rect x="0" y="0" width="20" height="25" rx="2" fill="none" stroke="#e2e8f0" stroke-width="1"/>
        
        <!-- Key points -->
        <circle cx="3" cy="5" r="1" fill="#6366f1"/>
        <line x1="5" y1="5" x2="17" y2="5" stroke="#6366f1" stroke-width="1"/>
        
        <circle cx="3" cy="9" r="1" fill="#6366f1"/>
        <line x1="5" y1="9" x2="15" y2="9" stroke="#6366f1" stroke-width="1"/>
        
        <circle cx="3" cy="13" r="1" fill="#6366f1"/>
        <line x1="5" y1="13" x2="16" y2="13" stroke="#6366f1" stroke-width="1"/>
        
        <!-- Sparkles for AI magic -->
        <g opacity="0.8">
            <path d="M10,18 L11,20 L10,22 L9,20 Z" fill="#fbbf24"/>
            <path d="M8,20 L10,19 L12,20 L10,21 Z" fill="#fbbf24"/>
        </g>
    </g>
    
    <!-- Additional sparkles around the icon -->
    <g opacity="0.6">
        <circle cx="15" cy="25" r="1" fill="white"/>
        <circle cx="65" cy="20" r="1.5" fill="white"/>
        <circle cx="70" cy="55" r="1" fill="white"/>
        <circle cx="12" cy="60" r="1.5" fill="white"/>
    </g>
</svg>
